<svg xmlns="http://www.w3.org/2000/svg" aria-hidden="true" style="position:absolute;width:0;height:0;overflow:hidden"><defs><symbol id="icon-icon-send" viewBox="0 0 32 32"><path fill="#fff" d="M32 0 0 18l10.227 3.788L26 7 14.002 23.186l.01.004-.012-.004V32l5.735-6.691L27 28l5-28z" style="fill:var(--color1, #fff)"/></symbol><symbol id="icon-button" viewBox="0 0 115 32"><path fill="#2196f3" d="M4.414 0h105.931c1.219 0 2.207.988 2.207 2.207v23.172a2.207 2.207 0 0 1-2.207 2.207H4.414a2.207 2.207 0 0 1-2.207-2.207V2.207C2.207.988 3.195 0 4.414 0z" style="fill:var(--color2, #2196f3)"/><path fill="#fff" d="M27.397 15.513h3.164v1.039h-4.78v-.759l3.103-4.47h-3.099v-1.047h4.707v.741l-3.095 4.496zm7.133 1.039a1.396 1.396 0 0 1-.125-.418c-.302.336-.694.504-1.177.504-.457 0-.836-.132-1.138-.397a1.277 1.277 0 0 1-.448-1c0-.494.183-.874.547-1.138.368-.264.898-.398 1.59-.401h.573v-.267c0-.216-.056-.388-.168-.517-.109-.129-.283-.194-.522-.194-.21 0-.375.05-.496.151a.516.516 0 0 0-.177.414h-1.246c0-.27.083-.52.25-.75s.402-.409.707-.539a2.558 2.558 0 0 1 1.026-.198c.575 0 1.03.145 1.366.435.339.287.509.693.509 1.216v2.022c.003.443.065.777.185 1.004v.073h-1.259zm-1.03-.867c.184 0 .353-.04.509-.121a.82.82 0 0 0 .345-.332v-.802h-.465c-.624 0-.955.216-.996.647l-.004.073c0 .155.055.283.164.384s.259.151.448.151zm7.788-1.422c0 .718-.164 1.294-.491 1.728-.325.431-.764.647-1.319.647-.471 0-.852-.164-1.142-.491v2.198H37.09v-6.457h1.155l.043.457a1.464 1.464 0 0 1 1.181-.543c.575 0 1.022.213 1.341.638s.478 1.011.478 1.759v.065zm-1.246-.091c0-.434-.078-.769-.233-1.004a.744.744 0 0 0-.668-.353c-.391 0-.66.149-.806.448v1.909c.152.307.424.461.815.461.595 0 .892-.487.892-1.461zm3.866 2.38h-1.25v-4.664h1.25v4.664zm-1.323-5.871c0-.187.062-.341.185-.461.126-.121.297-.181.513-.181.213 0 .382.06.509.181s.19.274.19.461a.61.61 0 0 1-.194.466c-.126.121-.295.181-.504.181s-.379-.06-.509-.181a.618.618 0 0 1-.19-.466zm5.409 4.582c0-.152-.076-.272-.228-.358-.149-.089-.391-.168-.724-.237-1.109-.233-1.664-.704-1.664-1.414 0-.414.171-.759.513-1.034.345-.279.795-.418 1.349-.418.592 0 1.065.139 1.418.418.356.279.534.641.534 1.086h-1.246a.596.596 0 0 0-.172-.44c-.115-.118-.294-.177-.539-.177-.21 0-.372.047-.487.142s-.172.216-.172.362c0 .138.065.25.194.336.132.083.353.157.664.22.31.06.572.129.785.207.658.241.987.659.987 1.254 0 .425-.182.77-.547 1.034-.365.262-.836.392-1.414.392a2.5 2.5 0 0 1-1.043-.207 1.772 1.772 0 0 1-.711-.573 1.344 1.344 0 0 1-.259-.789h1.181c.011.221.093.391.246.509s.356.177.612.177c.238 0 .418-.045.539-.134a.425.425 0 0 0 .185-.358zm3.978.284h2.28v1.004h-3.871v-.759l2.194-2.897h-2.129v-1.009h3.737v.737l-2.211 2.922zm8.843-.284c0-.152-.076-.272-.228-.358-.15-.089-.391-.168-.724-.237-1.11-.233-1.664-.704-1.664-1.414 0-.414.171-.759.513-1.034.345-.279.794-.418 1.349-.418.592 0 1.065.139 1.418.418.356.279.535.641.535 1.086h-1.246a.596.596 0 0 0-.172-.44c-.115-.118-.295-.177-.539-.177-.21 0-.372.047-.487.142s-.172.216-.172.362c0 .138.065.25.194.336.132.083.354.157.664.22.31.06.572.129.784.207.658.241.987.659.987 1.254 0 .425-.182.77-.547 1.034-.365.262-.836.392-1.414.392a2.5 2.5 0 0 1-1.043-.207 1.778 1.778 0 0 1-.711-.573 1.344 1.344 0 0 1-.259-.789h1.181c.012.221.093.391.246.509s.356.177.612.177c.238 0 .418-.045.538-.134a.425.425 0 0 0 .185-.358zm3.862 1.289h-1.25v-4.664h1.25v4.664zm-1.323-5.871c0-.187.062-.341.185-.461.126-.121.297-.181.513-.181.213 0 .382.06.509.181s.19.274.19.461a.61.61 0 0 1-.194.466c-.126.121-.294.181-.504.181s-.379-.06-.508-.181a.614.614 0 0 1-.19-.466zm6.848 5.116a1.819 1.819 0 0 1-.763.621h.004a2.35 2.35 0 0 0-.492.353.564.564 0 0 0-.172.405c0 .187.095.28.284.28a.92.92 0 0 0 .345-.086l.125.677c-.21.126-.447.19-.711.19-.287 0-.523-.08-.707-.241-.182-.158-.272-.378-.272-.659 0-.279.09-.516.272-.711-.615-.055-1.111-.287-1.487-.698-.374-.414-.56-.941-.56-1.582v-.134c0-.468.09-.886.271-1.254.181-.371.437-.655.767-.853a2.163 2.163 0 0 1 1.138-.302c.638 0 1.139.201 1.505.603.367.402.552.973.552 1.711v.509h-2.97c.04.305.161.549.362.733.204.184.461.276.771.276.48 0 .855-.174 1.125-.522l.612.685zm-1.961-2.987a.788.788 0 0 0-.604.25c-.152.167-.25.405-.293.716h1.733v-.099c-.006-.276-.081-.489-.224-.638-.144-.152-.348-.228-.612-.228zM97.103 7.172 83.862 14.62l4.232 1.567 6.527-6.119-4.964 6.698.004.002-.005-.002v3.647l2.373-2.769 3.006 1.113 2.069-11.586z" style="fill:var(--color1, #fff)"/></symbol></defs></svg>